<svg viewBox="230.71223958333334 669.08476 1024.1725260416665 146.6244" version="1.1" xmlns:xlink="http://www.w3.org/1999/xlink" xmlns="http://www.w3.org/2000/svg" ><rect fill="#ffffff" stroke="transparent" id="background" y="0" x="0" height="80" width=""/><svg y="250" x="250" viewBox="0 0 554 71" data-id="lg_q0eXRbrmuZik2nSe0T" data-version="2" height="1000" width="1000" xml:space="preserve"><rect fill="transparent" height="100%" width="100%"/><path d="M115.847 14.63q-.21 2.33-.29 4.5-.08 2.17-.08 3.34 0 1.06.05 2.01.06.96.11 1.59h-1.22q-.53-3.87-1.64-6.12-1.11-2.25-2.89-3.18-1.78-.93-4.16-.93h-2.17q-1.54 0-2.34.27-.79.26-1.06 1.06-.26.79-.26 2.44v27.56q0 1.64.26 2.44.27.79 1.06 1.06.8.26 2.34.26h2.59q2.39 0 4.22-1.03 1.83-1.04 3.12-3.53 1.3-2.49 1.99-6.73h1.22q-.16 1.7-.16 4.45 0 1.22.05 3.45.06 2.22.32 4.61-2.7-.11-6.09-.13-3.39-.03-6.04-.03h-3.4q-2.06 0-4.45.03-2.38.02-4.82.05-2.44.03-4.61.08v-1.06q1.69-.11 2.54-.42.85-.32 1.14-1.28.29-.95.29-2.86V20.24q0-1.96-.29-2.89-.29-.92-1.17-1.27-.87-.34-2.51-.39v-1.06q2.17.05 4.61.07l4.82.06q2.39.02 4.45.02h3.4q2.43 0 5.53-.02 3.1-.03 5.54-.13m-17.54 18.12h9.27v1.06h-9.27zm9.59-6.99h1.22q-.21 3.02-.18 4.61.02 1.59.02 2.91 0 1.33.06 2.92.05 1.59.26 4.61h-1.22q-.26-1.86-.98-3.45-.71-1.59-2.04-2.57-1.32-.98-3.44-.98v-1.06q1.59 0 2.7-.66t1.83-1.75q.71-1.09 1.14-2.31.42-1.21.63-2.27m18.87-14.69q2.23 0 3.52 1.09 1.3 1.09 1.3 3 0 1.9-1.3 2.99-1.29 1.09-3.52 1.09t-3.52-1.09q-1.3-1.09-1.3-2.99 0-1.91 1.3-3 1.29-1.09 3.52-1.09m4.13 13.1v23.05q0 2.23.77 3.02.77.8 2.63.8v1.11q-.96-.05-2.97-.13-2.02-.08-4.08-.08-2.07 0-4.19.08-2.12.08-3.18.13v-1.11q1.86 0 2.62-.8.77-.79.77-3.02V30.53q0-2.39-.71-3.53-.72-1.14-2.68-1.14v-1.11q1.7.16 3.29.16 2.22 0 4.16-.19 1.93-.18 3.57-.55m18.77-.16q2.06 0 3.79.45 1.72.45 2.83 1.14 1.38.84 2.15 2.09t.77 2.89q0 1.85-1.17 3.05-1.17 1.19-3.02 1.19-1.86 0-2.97-1.06t-1.11-2.86q0-1.7 1.06-2.84t2.44-1.51q-.43-.53-1.28-.9-.84-.37-1.9-.37-1.65 0-2.89.95-1.25.96-2.1 2.65-.84 1.7-1.29 3.98-.45 2.28-.45 4.98 0 4.08 1.03 6.41t2.65 3.29q1.62.95 3.36.95 1.01 0 2.2-.32 1.2-.31 2.44-1.27 1.25-.95 2.31-2.7l.9.32q-.58 1.96-1.91 3.92-1.32 1.96-3.44 3.21-2.12 1.24-5.2 1.24-3.44 0-6.23-1.51-2.78-1.51-4.45-4.66-1.67-3.16-1.67-8.14 0-4.77 1.72-8.03 1.73-3.26 4.7-4.9 2.96-1.64 6.73-1.64m22.57-13.31v18.24q1.33-2.76 3.58-3.85 2.25-1.08 5.06-1.08 2.28 0 3.66.55 1.38.56 2.17 1.51.9 1.01 1.3 2.6t.4 4.29v14.26q0 2.23.77 3.02.77.8 2.62.8v1.11q-1.01-.05-3.05-.13t-3.94-.08q-2.07 0-4.01.08-1.93.08-2.88.13v-1.11q1.59 0 2.22-.8.64-.79.64-3.02V30.74q0-1.33-.27-2.31-.26-.98-.98-1.54-.71-.55-2.04-.55-1.43 0-2.62.77-1.19.77-1.91 2.14-.72 1.38-.72 3.18v14.79q0 2.23.64 3.02.64.8 2.23.8v1.11q-.96-.05-2.81-.13-1.86-.08-3.77-.08-2.06 0-4.16.08-2.09.08-3.15.13v-1.11q1.86 0 2.62-.8.77-.79.77-3.02V17.06q0-2.38-.71-3.52-.72-1.14-2.68-1.14v-1.11q1.7.16 3.29.16 2.17 0 4.13-.19t3.6-.56m27.67.37q2.23 0 3.52 1.09 1.3 1.09 1.3 3 0 1.9-1.3 2.99-1.29 1.09-3.52 1.09t-3.52-1.09q-1.3-1.09-1.3-2.99 0-1.91 1.3-3 1.29-1.09 3.52-1.09m4.13 13.1v23.05q0 2.23.77 3.02.77.8 2.63.8v1.11q-.96-.05-2.97-.13-2.02-.08-4.08-.08-2.07 0-4.19.08-2.12.08-3.18.13v-1.11q1.86 0 2.62-.8.77-.79.77-3.02V30.53q0-2.39-.71-3.53-.72-1.14-2.68-1.14v-1.11q1.7.16 3.29.16 2.22 0 4.16-.19 1.93-.18 3.57-.55m24.7-.16q2.23 0 3.63.55 1.41.56 2.2 1.51.85 1.01 1.25 2.6t.4 4.29v14.26q0 2.23.76 3.02.77.8 2.63.8v1.11q-1.01-.05-3.02-.13-2.02-.08-3.98-.08-2.01 0-3.95.08-1.93.08-2.94.13v-1.11q1.59 0 2.23-.8.63-.79.63-3.02V30.74q0-1.33-.26-2.31-.27-.98-.96-1.54-.68-.55-2.06-.55-1.43 0-2.63.79-1.19.8-1.9 2.2-.72 1.41-.72 3.16v14.73q0 2.23.66 3.02.67.8 2.2.8v1.11q-.95-.05-2.78-.13-1.83-.08-3.79-.08-2.01 0-4.13.08t-3.18.13v-1.11q1.85 0 2.62-.8.77-.79.77-3.02V30.53q0-2.39-.72-3.53-.71-1.14-2.67-1.14v-1.11q1.69.16 3.28.16 2.23 0 4.16-.19 1.94-.18 3.58-.55v4.77q1.33-2.71 3.6-3.82 2.28-1.11 5.09-1.11m22.42 38.1q-3.28 0-5.86-.55-2.57-.56-4.02-1.7-1.46-1.14-1.46-2.78t1.48-2.94q1.49-1.3 4.4-2.04l.48.84q-1.01.8-1.46 1.73-.45.92-.45 1.93 0 2.23 2.04 3.42t5.54 1.19q2.39 0 4.27-.63 1.88-.64 2.96-1.91 1.09-1.27 1.09-3.13 0-1.59-1.16-2.68-1.17-1.08-4.67-1.08h-3.28q-2.18 0-3.79-.48-1.62-.48-2.52-1.51-.9-1.03-.9-2.62 0-2.23 1.75-3.92 1.75-1.7 5.19-3.18l.53.42q-1.01.64-1.88 1.35-.88.72-.88 1.83 0 1.7 2.12 1.7h5.78q2.92 0 5.22.68 2.31.69 3.66 2.26 1.35 1.56 1.35 4.05 0 2.6-1.67 4.82-1.67 2.23-5.11 3.58-3.45 1.35-8.75 1.35m.53-21.25q-3.02 0-5.4-.9-2.39-.9-3.77-2.76-1.38-1.85-1.38-4.77 0-2.91 1.38-4.79t3.77-2.76q2.38-.87 5.4-.87 3.02 0 5.41.87 2.38.88 3.76 2.76t1.38 4.79q0 2.92-1.38 4.77-1.38 1.86-3.76 2.76-2.39.9-5.41.9m0-.95q1.43 0 2.23-1.62.79-1.62.79-5.86t-.79-5.85q-.8-1.62-2.23-1.62-1.38 0-2.2 1.62-.82 1.61-.82 5.85 0 4.24.82 5.86t2.2 1.62m8.27-11.35-1.06-.37q.79-2.06 2.57-3.44 1.78-1.38 3.84-1.38 1.7 0 2.57.93.88.93.88 2.41 0 1.59-.85 2.36-.85.77-1.91.77-.9 0-1.67-.64-.77-.64-.87-1.93-.11-1.3.9-3.37l.37.32q-2.01.74-3.02 1.72-1.01.98-1.75 2.62m23.21-4.55q4.67 0 7.32 2.75 2.65 2.76 2.65 9.01h-17.44l-.11-1h10.87q.05-2.6-.32-4.8-.37-2.2-1.16-3.53-.8-1.32-2.12-1.32-1.86 0-3.16 2.33t-1.56 7.74l.16.32q-.06.63-.08 1.32-.03.69-.03 1.43 0 3.66 1.03 5.94 1.04 2.28 2.63 3.31 1.59 1.04 3.23 1.04 1.11 0 2.31-.35 1.19-.34 2.41-1.27 1.22-.93 2.28-2.62l.95.31q-.63 2.02-2.01 3.93-1.38 1.9-3.5 3.12-2.12 1.22-5.09 1.22-3.6 0-6.36-1.54-2.75-1.53-4.32-4.66-1.56-3.13-1.56-7.95 0-4.93 1.67-8.21 1.67-3.29 4.61-4.91 2.94-1.61 6.7-1.61m30.58 0q1.7 0 2.76.71 1.06.72 1.56 1.83.51 1.11.51 2.33 0 1.96-1.14 3.21-1.14 1.24-3 1.24-1.85 0-2.89-.92-1.03-.93-1.03-2.47 0-1.48.66-2.46.67-.98 1.67-1.67-.74-.21-1.48.05-1.01.16-1.91.82-.9.67-1.54 1.65-.63.98-1 2.12-.37 1.14-.37 2.2v14.04q0 2.54 1.24 3.45 1.25.9 3.74.9v1.11q-1.22-.05-3.55-.13t-4.88-.08q-2.12 0-4.29.08t-3.29.13v-1.11q1.86 0 2.63-.8.76-.79.76-3.02V30.53q0-2.39-.71-3.53-.72-1.14-2.68-1.14v-1.11q1.7.16 3.29.16 2.22 0 4.16-.19 1.93-.18 3.58-.55v4.92q.63-1.43 1.69-2.59 1.06-1.17 2.44-1.83 1.38-.66 3.07-.66" fill="#35524a"/><path d="M351.007 13.88q3.5 0 5.75 1.04 2.26 1.03 4.01 2.41 1.06.79 1.61.18.56-.61.77-2.88h1.22q-.11 2.06-.16 5-.05 2.95-.05 7.82h-1.22q-.27-2.44-.69-4.16-.42-1.72-1.17-3.05-.74-1.32-2.12-2.38-1.32-1.33-3.07-1.96-1.75-.64-3.66-.64-2.86 0-4.87 1.51-2.02 1.51-3.26 4.11-1.25 2.6-1.83 5.86-.58 3.26-.58 6.75 0 3.55.6 6.81.61 3.26 1.91 5.81 1.3 2.54 3.37 4.03 2.07 1.48 4.87 1.48 1.75 0 3.53-.66 1.77-.67 3.05-1.94 2.06-1.59 2.81-3.95.74-2.35 1.11-6.28h1.22q0 5.04.05 8.14.05 3.1.16 5.22h-1.22q-.21-2.28-.72-2.86-.5-.59-1.66.16-1.97 1.37-4.17 2.41-2.19 1.03-5.64 1.03-5.62 0-9.83-2.28t-6.55-6.57q-2.33-4.29-2.33-10.33 0-5.94 2.41-10.39t6.63-6.95q4.21-2.49 9.72-2.49m42.83 10.87v1.06q-1.01.26-1.91 1.24-.9.98-1.75 3.32l-7.47 20.98-1.96 3.71-11.56-26.23q-.9-2.07-1.77-2.52-.88-.45-1.51-.45v-1.11q1.75.16 3.63.24 1.88.08 3.63.08 2.17 0 3.97-.11 1.8-.11 3.39-.21v1.11q-1.06 0-1.98.13-.93.14-1.28.75-.34.61.3 2.09l6.67 16.11-.47.32 3.92-10.97q1.01-2.86.85-4.69-.16-1.83-1.17-2.76-1.01-.93-2.75-1.03v-1.06q.84.05 1.74.08.91.02 1.81.05.9.03 1.59.03 1.06 0 2.22-.06 1.17-.05 1.86-.1m-12.4 26.71 1.27-.11-2.02 5.68q-.53 1.32-1.08 2.25-.56.93-1.25 1.51-.74.63-1.91.98-1.16.34-2.7.34-1.27 0-2.62-.42t-2.26-1.38q-.9-.95-.9-2.44 0-1.64 1.17-2.62 1.17-.98 3.07-.98 1.75 0 2.87.85 1.11.85 1.11 2.49 0 1.06-.66 2.01-.67.96-1.99 1.43.26.06.63.06h.59q1.59 0 2.81-1.01t2.01-3.18zm31.48-27.45q4.13 0 6.86 3.36 2.73 3.37 2.73 10.36 0 5.52-1.67 8.85-1.67 3.34-4.42 4.83-2.76 1.48-6.05 1.48-2.17 0-4.02-.74-1.86-.74-3.18-2.44l.74-.26q.95 1.16 2.25 1.75 1.3.58 2.57.58 2.92 0 4.35-3.29 1.43-3.28 1.43-10.01 0-4.56-.56-7.24-.56-2.68-1.62-3.82-1.06-1.13-2.54-1.13-1.85 0-3.39 1.51t-1.75 4.21l-.27-1.86q.96-3.02 3.24-4.58 2.28-1.56 5.3-1.56m-8.11-13.31v40.39q-1.33-.21-2.7 0-1.38.21-2.55.71-1.16.51-1.96 1.2l-.79-.48q.21-.74.29-1.48.08-.75.08-1.49V17.06q0-2.38-.72-3.52-.71-1.14-2.68-1.14v-1.11q1.7.16 3.29.16 2.17 0 4.13-.19 1.97-.19 3.61-.56m33.97 13.31q4.67 0 7.32 2.75 2.65 2.76 2.65 9.01h-17.44l-.11-1h10.87q.05-2.6-.32-4.8-.37-2.2-1.17-3.53-.79-1.32-2.12-1.32-1.85 0-3.15 2.33-1.3 2.33-1.56 7.74l.16.32q-.06.63-.08 1.32-.03.69-.03 1.43 0 3.66 1.03 5.94 1.04 2.28 2.63 3.31 1.59 1.04 3.23 1.04 1.11 0 2.3-.35 1.2-.34 2.42-1.27 1.22-.93 2.28-2.62l.95.31q-.64 2.02-2.01 3.93-1.38 1.9-3.5 3.12-2.12 1.22-5.09 1.22-3.6 0-6.36-1.54-2.76-1.53-4.32-4.66-1.56-3.13-1.56-7.95 0-4.93 1.67-8.21 1.67-3.29 4.61-4.91 2.94-1.61 6.7-1.61m30.58 0q1.7 0 2.76.71 1.06.72 1.56 1.83.51 1.11.51 2.33 0 1.96-1.14 3.21-1.14 1.24-3 1.24-1.85 0-2.89-.92-1.03-.93-1.03-2.47 0-1.48.66-2.46t1.67-1.67q-.74-.21-1.48.05-1.01.16-1.91.82-.9.67-1.54 1.65-.63.98-1 2.12-.38 1.14-.38 2.2v14.04q0 2.54 1.25 3.45 1.25.9 3.74.9v1.11q-1.22-.05-3.55-.13-2.34-.08-4.88-.08-2.12 0-4.29.08-2.18.08-3.29.13v-1.11q1.86 0 2.62-.8.77-.79.77-3.02V30.53q0-2.39-.71-3.53-.72-1.14-2.68-1.14v-1.11q1.7.16 3.29.16 2.22 0 4.16-.19 1.93-.18 3.57-.55v4.92q.64-1.43 1.7-2.59 1.06-1.17 2.44-1.83 1.38-.66 3.07-.66m16.33 0q2.22 0 3.89.55 1.67.56 2.41 1.09 1.81 1.22 2.23-1.59h1.11q-.1 1.48-.16 3.63-.05 2.15-.05 5.7h-1.11q-.27-1.96-1.01-3.87-.74-1.91-2.15-3.13-1.4-1.22-3.63-1.22-1.53 0-2.59.88-1.06.87-1.06 2.51 0 1.59.95 2.79.95 1.19 2.46 2.28 1.52 1.08 3.16 2.3 1.75 1.33 3.18 2.62 1.43 1.3 2.28 2.84.85 1.54.85 3.66 0 2.38-1.38 4.16-1.38 1.77-3.63 2.73-2.26.95-5.01.95-1.59 0-2.84-.32-1.24-.31-2.14-.79-.69-.32-1.3-.61-.61-.29-1.14-.5-.53-.16-.93.37t-.61 1.48h-1.11q.1-1.7.16-4.13.05-2.44.05-6.47h1.11q.32 2.86 1.17 5.06.85 2.2 2.3 3.45 1.46 1.24 3.69 1.24.9 0 1.75-.37t1.4-1.22q.56-.85.56-2.17 0-2.33-1.51-3.87t-3.84-3.34q-1.7-1.38-3.21-2.73t-2.47-2.97q-.95-1.61-.95-3.68 0-2.38 1.27-4.03 1.27-1.64 3.37-2.46 2.09-.82 4.48-.82m26.97 0q4.67 0 7.32 2.75 2.65 2.76 2.65 9.01h-17.44l-.11-1h10.87q.05-2.6-.32-4.8-.37-2.2-1.16-3.53-.8-1.32-2.12-1.32-1.86 0-3.16 2.33t-1.56 7.74l.16.32q-.06.63-.08 1.32-.03.69-.03 1.43 0 3.66 1.03 5.94 1.04 2.28 2.63 3.31 1.59 1.04 3.23 1.04 1.11 0 2.31-.35 1.19-.34 2.41-1.27 1.22-.93 2.28-2.62l.95.31q-.63 2.02-2.01 3.93-1.38 1.9-3.5 3.12-2.12 1.22-5.09 1.22-3.6 0-6.36-1.54-2.75-1.53-4.32-4.66-1.56-3.13-1.56-7.95 0-4.93 1.67-8.21 1.67-3.29 4.61-4.91 2.94-1.61 6.7-1.61m26.13 0q2.07 0 3.79.45 1.72.45 2.84 1.14 1.38.84 2.14 2.09.77 1.25.77 2.89 0 1.85-1.16 3.05-1.17 1.19-3.02 1.19-1.86 0-2.97-1.06-1.12-1.06-1.12-2.86 0-1.7 1.06-2.84t2.44-1.51q-.42-.53-1.27-.9-.85-.37-1.91-.37-1.64 0-2.89.95-1.24.96-2.09 2.65-.85 1.7-1.3 3.98-.45 2.28-.45 4.98 0 4.08 1.03 6.41 1.04 2.33 2.65 3.29 1.62.95 3.37.95 1.01 0 2.2-.32 1.19-.31 2.44-1.27 1.24-.95 2.3-2.7l.9.32q-.58 1.96-1.9 3.92-1.33 1.96-3.45 3.21-2.12 1.24-5.19 1.24-3.45 0-6.23-1.51-2.78-1.51-4.45-4.66-1.67-3.16-1.67-8.14 0-4.77 1.72-8.03t4.69-4.9q2.97-1.64 6.73-1.64"/><path d="M59.32 9.65c-5.383 0-15.078-1.296-24.773-9.052-7.756 7.756-18.095 9.051-24.129 9.051-3.017 0-4.956-.325-4.956-.325v16.66c0 34.901 29.085 44.418 29.085 44.418s29.085-9.517 29.085-44.419V9.323s-1.613.326-4.312.326M30.91 47.134 18.545 34.05l3.646-4.367 8.717 6.182 18.18-13.45 3.274 2.901z" fill="#35524a"/></svg></svg>